<svg width="526" height="261" viewBox="0 0 526 261" fill="none" xmlns="http://www.w3.org/2000/svg">
<path d="M77.3625 43.5625L52.6125 119H32.675L66.4875 28H79.175L77.3625 43.5625ZM97.925 119L73.1125 43.5625L71.1125 28H83.925L117.925 119H97.925ZM96.8 85.125V99.8125H48.7375V85.125H96.8ZM157.038 23V119H138.975V23H157.038ZM215.838 120.25C210.588 120.25 205.879 119.417 201.713 117.75C197.546 116.042 194.004 113.688 191.088 110.688C188.213 107.688 186.004 104.208 184.463 100.25C182.921 96.25 182.15 92 182.15 87.5V85C182.15 79.875 182.879 75.1875 184.338 70.9375C185.796 66.6875 187.879 63 190.588 59.875C193.338 56.75 196.671 54.3542 200.588 52.6875C204.504 50.9792 208.921 50.125 213.838 50.125C218.629 50.125 222.879 50.9167 226.588 52.5C230.296 54.0833 233.4 56.3333 235.9 59.25C238.442 62.1667 240.358 65.6667 241.65 69.75C242.942 73.7917 243.588 78.2917 243.588 83.25V90.75H189.838V78.75H225.9V77.375C225.9 74.875 225.442 72.6458 224.525 70.6875C223.65 68.6875 222.317 67.1042 220.525 65.9375C218.733 64.7708 216.442 64.1875 213.65 64.1875C211.275 64.1875 209.233 64.7083 207.525 65.75C205.817 66.7917 204.421 68.25 203.338 70.125C202.296 72 201.504 74.2083 200.963 76.75C200.463 79.25 200.213 82 200.213 85V87.5C200.213 90.2083 200.588 92.7083 201.338 95C202.129 97.2917 203.233 99.2708 204.65 100.938C206.108 102.604 207.858 103.896 209.9 104.812C211.983 105.729 214.338 106.188 216.963 106.188C220.213 106.188 223.233 105.562 226.025 104.312C228.858 103.021 231.296 101.083 233.338 98.5L242.088 108C240.671 110.042 238.733 112 236.275 113.875C233.858 115.75 230.942 117.292 227.525 118.5C224.108 119.667 220.213 120.25 215.838 120.25ZM281.138 51.375L292.325 71.9375L303.825 51.375H323.013L303.888 84.4375L323.888 119H304.638L292.45 97.25L280.263 119H261.013L281.013 84.4375L261.888 51.375H281.138Z" fill="#1E1E1E"/>
<path d="M159.712 147V238H140.962V147H159.712ZM195.962 185.875V200.5H154.587V185.875H195.962ZM200.337 147V161.688H154.587V147H200.337ZM252.637 239.25C247.387 239.25 242.679 238.417 238.512 236.75C234.346 235.042 230.804 232.688 227.887 229.688C225.012 226.688 222.804 223.208 221.262 219.25C219.721 215.25 218.95 211 218.95 206.5V204C218.95 198.875 219.679 194.188 221.137 189.938C222.596 185.688 224.679 182 227.387 178.875C230.137 175.75 233.471 173.354 237.387 171.688C241.304 169.979 245.721 169.125 250.637 169.125C255.429 169.125 259.679 169.917 263.387 171.5C267.096 173.083 270.2 175.333 272.7 178.25C275.242 181.167 277.158 184.667 278.45 188.75C279.742 192.792 280.387 197.292 280.387 202.25V209.75H226.637V197.75H262.7V196.375C262.7 193.875 262.242 191.646 261.325 189.688C260.45 187.688 259.117 186.104 257.325 184.938C255.533 183.771 253.242 183.188 250.45 183.188C248.075 183.188 246.033 183.708 244.325 184.75C242.617 185.792 241.221 187.25 240.137 189.125C239.096 191 238.304 193.208 237.762 195.75C237.262 198.25 237.012 201 237.012 204V206.5C237.012 209.208 237.387 211.708 238.137 214C238.929 216.292 240.033 218.271 241.45 219.938C242.908 221.604 244.658 222.896 246.7 223.812C248.783 224.729 251.137 225.188 253.762 225.188C257.012 225.188 260.033 224.562 262.825 223.312C265.658 222.021 268.096 220.083 270.137 217.5L278.887 227C277.471 229.042 275.533 231 273.075 232.875C270.658 234.75 267.742 236.292 264.325 237.5C260.908 238.667 257.012 239.25 252.637 239.25ZM321.438 185.125V238H303.438V170.375H320.375L321.438 185.125ZM341.812 169.938L341.5 186.625C340.625 186.5 339.562 186.396 338.312 186.312C337.104 186.188 336 186.125 335 186.125C332.458 186.125 330.25 186.458 328.375 187.125C326.542 187.75 325 188.688 323.75 189.938C322.542 191.188 321.625 192.708 321 194.5C320.417 196.292 320.083 198.333 320 200.625L316.375 199.5C316.375 195.125 316.812 191.104 317.688 187.438C318.562 183.729 319.833 180.5 321.5 177.75C323.208 175 325.292 172.875 327.75 171.375C330.208 169.875 333.021 169.125 336.188 169.125C337.188 169.125 338.208 169.208 339.25 169.375C340.292 169.5 341.146 169.688 341.812 169.938ZM381.112 185.125V238H363.112V170.375H380.05L381.112 185.125ZM401.487 169.938L401.175 186.625C400.3 186.5 399.237 186.396 397.987 186.312C396.779 186.188 395.675 186.125 394.675 186.125C392.133 186.125 389.925 186.458 388.05 187.125C386.217 187.75 384.675 188.688 383.425 189.938C382.217 191.188 381.3 192.708 380.675 194.5C380.092 196.292 379.758 198.333 379.675 200.625L376.05 199.5C376.05 195.125 376.487 191.104 377.362 187.438C378.237 183.729 379.508 180.5 381.175 177.75C382.883 175 384.967 172.875 387.425 171.375C389.883 169.875 392.696 169.125 395.862 169.125C396.862 169.125 397.883 169.208 398.925 169.375C399.967 169.5 400.821 169.688 401.487 169.938ZM418.038 204.875V203.562C418.038 198.604 418.746 194.042 420.163 189.875C421.579 185.667 423.642 182.021 426.35 178.938C429.058 175.854 432.392 173.458 436.35 171.75C440.308 170 444.85 169.125 449.975 169.125C455.1 169.125 459.663 170 463.663 171.75C467.663 173.458 471.017 175.854 473.725 178.938C476.475 182.021 478.558 185.667 479.975 189.875C481.392 194.042 482.1 198.604 482.1 203.562V204.875C482.1 209.792 481.392 214.354 479.975 218.562C478.558 222.729 476.475 226.375 473.725 229.5C471.017 232.583 467.683 234.979 463.725 236.688C459.767 238.396 455.225 239.25 450.1 239.25C444.975 239.25 440.413 238.396 436.413 236.688C432.454 234.979 429.1 232.583 426.35 229.5C423.642 226.375 421.579 222.729 420.163 218.562C418.746 214.354 418.038 209.792 418.038 204.875ZM436.038 203.562V204.875C436.038 207.708 436.288 210.354 436.788 212.812C437.288 215.271 438.079 217.438 439.163 219.312C440.288 221.146 441.746 222.583 443.538 223.625C445.329 224.667 447.517 225.188 450.1 225.188C452.6 225.188 454.746 224.667 456.538 223.625C458.329 222.583 459.767 221.146 460.85 219.312C461.933 217.438 462.725 215.271 463.225 212.812C463.767 210.354 464.038 207.708 464.038 204.875V203.562C464.038 200.812 463.767 198.229 463.225 195.812C462.725 193.354 461.913 191.188 460.788 189.312C459.704 187.396 458.267 185.896 456.475 184.812C454.683 183.729 452.517 183.188 449.975 183.188C447.433 183.188 445.267 183.729 443.475 184.812C441.725 185.896 440.288 187.396 439.163 189.312C438.079 191.188 437.288 193.354 436.788 195.812C436.288 198.229 436.038 200.812 436.038 203.562Z" fill="#1E1E1E"/>
</svg>
